<mxfile host="app.diagrams.net" modified="2024-07-09T11:09:32.148Z" agent="Mozilla/5.0 (Windows NT 10.0; Win64; x64) AppleWebKit/537.36 (KHTML, like Gecko) Chrome/126.0.0.0 Safari/537.36" etag="xiLDE1ICt9wexPiOQuRy" version="24.6.4" type="device">
  <diagram id="R2lEEEUBdFMjLlhIrx00" name="Page-1">
    <mxGraphModel dx="712" dy="779" grid="1" gridSize="10" guides="1" tooltips="1" connect="1" arrows="1" fold="1" page="1" pageScale="1" pageWidth="850" pageHeight="1100" background="none" math="0" shadow="0" extFonts="Permanent Marker^https://fonts.googleapis.com/css?family=Permanent+Marker">
      <root>
        <mxCell id="0" />
        <mxCell id="1" parent="0" />
        <mxCell id="BedlxxxgPP-4YYRG52dp-1" value="Hospital" style="whiteSpace=wrap;html=1;align=center;labelBackgroundColor=none;fillColor=#F2CC8F;strokeColor=#E07A5F;fontColor=#393C56;" vertex="1" parent="1">
          <mxGeometry x="310" y="280" width="100" height="40" as="geometry" />
        </mxCell>
        <mxCell id="BedlxxxgPP-4YYRG52dp-27" style="edgeStyle=orthogonalEdgeStyle;shape=connector;curved=1;rounded=0;orthogonalLoop=1;jettySize=auto;html=1;entryX=0;entryY=0.5;entryDx=0;entryDy=0;strokeColor=#E07A5F;align=center;verticalAlign=middle;fontFamily=Helvetica;fontSize=11;fontColor=default;labelBackgroundColor=none;endArrow=none;endFill=0;" edge="1" parent="1" target="BedlxxxgPP-4YYRG52dp-25">
          <mxGeometry relative="1" as="geometry">
            <mxPoint x="560" y="420" as="sourcePoint" />
          </mxGeometry>
        </mxCell>
        <mxCell id="BedlxxxgPP-4YYRG52dp-30" style="edgeStyle=orthogonalEdgeStyle;shape=connector;curved=1;rounded=0;orthogonalLoop=1;jettySize=auto;html=1;exitX=1;exitY=0.5;exitDx=0;exitDy=0;strokeColor=#E07A5F;align=center;verticalAlign=middle;fontFamily=Helvetica;fontSize=11;fontColor=default;labelBackgroundColor=none;endArrow=none;endFill=0;" edge="1" parent="1" source="BedlxxxgPP-4YYRG52dp-2">
          <mxGeometry relative="1" as="geometry">
            <mxPoint x="560" y="420" as="targetPoint" />
          </mxGeometry>
        </mxCell>
        <mxCell id="BedlxxxgPP-4YYRG52dp-32" style="edgeStyle=orthogonalEdgeStyle;shape=connector;curved=1;rounded=0;orthogonalLoop=1;jettySize=auto;html=1;exitX=1;exitY=1;exitDx=0;exitDy=0;entryX=0.5;entryY=0;entryDx=0;entryDy=0;strokeColor=#E07A5F;align=center;verticalAlign=middle;fontFamily=Helvetica;fontSize=11;fontColor=default;labelBackgroundColor=none;endArrow=none;endFill=0;" edge="1" parent="1" source="BedlxxxgPP-4YYRG52dp-2" target="BedlxxxgPP-4YYRG52dp-31">
          <mxGeometry relative="1" as="geometry" />
        </mxCell>
        <mxCell id="BedlxxxgPP-4YYRG52dp-2" value="Doctors" style="whiteSpace=wrap;html=1;align=center;labelBackgroundColor=none;fillColor=#F2CC8F;strokeColor=#E07A5F;fontColor=#393C56;" vertex="1" parent="1">
          <mxGeometry x="460" y="380" width="100" height="40" as="geometry" />
        </mxCell>
        <mxCell id="BedlxxxgPP-4YYRG52dp-3" value="Patients" style="whiteSpace=wrap;html=1;align=center;labelBackgroundColor=none;fillColor=#F2CC8F;strokeColor=#E07A5F;fontColor=#393C56;" vertex="1" parent="1">
          <mxGeometry x="140" y="380" width="100" height="40" as="geometry" />
        </mxCell>
        <mxCell id="BedlxxxgPP-4YYRG52dp-4" value="Treatment details" style="shape=ext;margin=3;double=1;whiteSpace=wrap;html=1;align=center;labelBackgroundColor=none;fillColor=#F2CC8F;strokeColor=#E07A5F;fontColor=#393C56;" vertex="1" parent="1">
          <mxGeometry x="310" y="492.5" width="100" height="40" as="geometry" />
        </mxCell>
        <mxCell id="BedlxxxgPP-4YYRG52dp-6" value="" style="edgeStyle=orthogonalEdgeStyle;fontSize=12;html=1;endArrow=ERoneToMany;rounded=0;entryX=0.5;entryY=0;entryDx=0;entryDy=0;exitX=1;exitY=0.5;exitDx=0;exitDy=0;curved=1;labelBackgroundColor=none;strokeColor=#E07A5F;fontColor=default;" edge="1" parent="1" source="BedlxxxgPP-4YYRG52dp-8" target="BedlxxxgPP-4YYRG52dp-2">
          <mxGeometry width="100" height="100" relative="1" as="geometry">
            <mxPoint x="340" y="460" as="sourcePoint" />
            <mxPoint x="440" y="360" as="targetPoint" />
          </mxGeometry>
        </mxCell>
        <mxCell id="BedlxxxgPP-4YYRG52dp-7" value="" style="edgeStyle=entityRelationEdgeStyle;fontSize=12;html=1;endArrow=ERoneToMany;rounded=0;entryX=0;entryY=0.5;entryDx=0;entryDy=0;exitX=1;exitY=0.5;exitDx=0;exitDy=0;labelBackgroundColor=none;strokeColor=#E07A5F;fontColor=default;" edge="1" parent="1" source="BedlxxxgPP-4YYRG52dp-1" target="BedlxxxgPP-4YYRG52dp-8">
          <mxGeometry width="100" height="100" relative="1" as="geometry">
            <mxPoint x="420" y="300" as="sourcePoint" />
            <mxPoint x="560" y="300" as="targetPoint" />
          </mxGeometry>
        </mxCell>
        <mxCell id="BedlxxxgPP-4YYRG52dp-8" value="Employs" style="shape=rhombus;perimeter=rhombusPerimeter;whiteSpace=wrap;html=1;align=center;labelBackgroundColor=none;fillColor=#F2CC8F;strokeColor=#E07A5F;fontColor=#393C56;" vertex="1" parent="1">
          <mxGeometry x="450" y="270" width="120" height="60" as="geometry" />
        </mxCell>
        <mxCell id="BedlxxxgPP-4YYRG52dp-10" value="" style="edgeStyle=orthogonalEdgeStyle;fontSize=12;html=1;endArrow=ERoneToMany;rounded=0;entryX=0.5;entryY=0;entryDx=0;entryDy=0;exitX=0;exitY=0.5;exitDx=0;exitDy=0;curved=1;labelBackgroundColor=none;strokeColor=#E07A5F;fontColor=default;" edge="1" parent="1" source="BedlxxxgPP-4YYRG52dp-12" target="BedlxxxgPP-4YYRG52dp-3">
          <mxGeometry width="100" height="100" relative="1" as="geometry">
            <mxPoint x="185" y="290" as="sourcePoint" />
            <mxPoint x="195" y="420" as="targetPoint" />
          </mxGeometry>
        </mxCell>
        <mxCell id="BedlxxxgPP-4YYRG52dp-11" value="" style="edgeStyle=entityRelationEdgeStyle;fontSize=12;html=1;endArrow=ERoneToMany;rounded=0;entryX=1;entryY=0.5;entryDx=0;entryDy=0;exitX=0;exitY=0.5;exitDx=0;exitDy=0;labelBackgroundColor=none;strokeColor=#E07A5F;fontColor=default;" edge="1" parent="1" source="BedlxxxgPP-4YYRG52dp-1" target="BedlxxxgPP-4YYRG52dp-12">
          <mxGeometry width="100" height="100" relative="1" as="geometry">
            <mxPoint x="320" y="300" as="sourcePoint" />
            <mxPoint x="140" y="300" as="targetPoint" />
          </mxGeometry>
        </mxCell>
        <mxCell id="BedlxxxgPP-4YYRG52dp-14" style="edgeStyle=orthogonalEdgeStyle;rounded=0;orthogonalLoop=1;jettySize=auto;html=1;exitX=0.5;exitY=0;exitDx=0;exitDy=0;entryX=0.5;entryY=1;entryDx=0;entryDy=0;endArrow=none;endFill=0;labelBackgroundColor=none;strokeColor=#E07A5F;fontColor=default;" edge="1" parent="1" source="BedlxxxgPP-4YYRG52dp-12" target="BedlxxxgPP-4YYRG52dp-13">
          <mxGeometry relative="1" as="geometry" />
        </mxCell>
        <mxCell id="BedlxxxgPP-4YYRG52dp-12" value="Admits" style="shape=rhombus;perimeter=rhombusPerimeter;whiteSpace=wrap;html=1;align=center;labelBackgroundColor=none;fillColor=#F2CC8F;strokeColor=#E07A5F;fontColor=#393C56;" vertex="1" parent="1">
          <mxGeometry x="130" y="270" width="120" height="60" as="geometry" />
        </mxCell>
        <mxCell id="BedlxxxgPP-4YYRG52dp-13" value="Doctor id" style="ellipse;whiteSpace=wrap;html=1;align=center;fontStyle=4;dashed=1;labelBackgroundColor=none;fillColor=#F2CC8F;strokeColor=#E07A5F;fontColor=#393C56;" vertex="1" parent="1">
          <mxGeometry x="140" y="200" width="100" height="40" as="geometry" />
        </mxCell>
        <mxCell id="BedlxxxgPP-4YYRG52dp-18" value="" style="edgeStyle=entityRelationEdgeStyle;fontSize=12;html=1;endArrow=ERmany;startArrow=ERmany;rounded=0;strokeColor=#E07A5F;align=center;verticalAlign=middle;fontFamily=Helvetica;fontColor=default;labelBackgroundColor=none;exitX=1;exitY=0.5;exitDx=0;exitDy=0;entryX=0;entryY=0.5;entryDx=0;entryDy=0;" edge="1" parent="1" source="BedlxxxgPP-4YYRG52dp-20" target="BedlxxxgPP-4YYRG52dp-2">
          <mxGeometry width="100" height="100" relative="1" as="geometry">
            <mxPoint x="340" y="360" as="sourcePoint" />
            <mxPoint x="454" y="400" as="targetPoint" />
          </mxGeometry>
        </mxCell>
        <mxCell id="BedlxxxgPP-4YYRG52dp-19" value="" style="edgeStyle=entityRelationEdgeStyle;fontSize=12;html=1;endArrow=ERmany;startArrow=ERmany;rounded=0;strokeColor=#E07A5F;align=center;verticalAlign=middle;fontFamily=Helvetica;fontColor=default;labelBackgroundColor=none;exitX=1;exitY=0.5;exitDx=0;exitDy=0;entryX=0;entryY=0.5;entryDx=0;entryDy=0;" edge="1" parent="1" source="BedlxxxgPP-4YYRG52dp-3" target="BedlxxxgPP-4YYRG52dp-20">
          <mxGeometry width="100" height="100" relative="1" as="geometry">
            <mxPoint x="240" y="400" as="sourcePoint" />
            <mxPoint x="460" y="400" as="targetPoint" />
          </mxGeometry>
        </mxCell>
        <mxCell id="BedlxxxgPP-4YYRG52dp-26" style="edgeStyle=orthogonalEdgeStyle;shape=connector;curved=1;rounded=0;orthogonalLoop=1;jettySize=auto;html=1;exitX=0.5;exitY=1;exitDx=0;exitDy=0;entryX=0.5;entryY=0;entryDx=0;entryDy=0;strokeColor=#E07A5F;align=center;verticalAlign=middle;fontFamily=Helvetica;fontSize=11;fontColor=default;labelBackgroundColor=none;endArrow=none;endFill=0;" edge="1" parent="1" source="BedlxxxgPP-4YYRG52dp-20" target="BedlxxxgPP-4YYRG52dp-4">
          <mxGeometry relative="1" as="geometry" />
        </mxCell>
        <mxCell id="BedlxxxgPP-4YYRG52dp-20" value="Treats" style="shape=rhombus;perimeter=rhombusPerimeter;whiteSpace=wrap;html=1;align=center;fontFamily=Helvetica;fontSize=11;fontColor=#393C56;labelBackgroundColor=none;fillColor=#F2CC8F;strokeColor=#E07A5F;" vertex="1" parent="1">
          <mxGeometry x="300" y="370" width="120" height="60" as="geometry" />
        </mxCell>
        <mxCell id="BedlxxxgPP-4YYRG52dp-22" style="edgeStyle=orthogonalEdgeStyle;shape=connector;rounded=0;orthogonalLoop=1;jettySize=auto;html=1;exitX=0.5;exitY=0;exitDx=0;exitDy=0;strokeColor=#E07A5F;align=center;verticalAlign=middle;fontFamily=Helvetica;fontSize=11;fontColor=default;labelBackgroundColor=none;endArrow=none;endFill=0;curved=1;" edge="1" parent="1" source="BedlxxxgPP-4YYRG52dp-21">
          <mxGeometry relative="1" as="geometry">
            <mxPoint x="560" y="420" as="targetPoint" />
          </mxGeometry>
        </mxCell>
        <mxCell id="BedlxxxgPP-4YYRG52dp-21" value="Doctor code," style="ellipse;whiteSpace=wrap;html=1;align=center;fontStyle=4;fontFamily=Helvetica;fontSize=11;fontColor=#393C56;labelBackgroundColor=none;fillColor=#F2CC8F;strokeColor=#E07A5F;" vertex="1" parent="1">
          <mxGeometry x="620" y="447.5" width="100" height="45" as="geometry" />
        </mxCell>
        <mxCell id="BedlxxxgPP-4YYRG52dp-25" value="Doctor name" style="ellipse;whiteSpace=wrap;html=1;align=center;fontFamily=Helvetica;fontSize=11;fontColor=#393C56;labelBackgroundColor=none;fillColor=#F2CC8F;strokeColor=#E07A5F;" vertex="1" parent="1">
          <mxGeometry x="620" y="370" width="100" height="40" as="geometry" />
        </mxCell>
        <mxCell id="BedlxxxgPP-4YYRG52dp-29" style="edgeStyle=orthogonalEdgeStyle;shape=connector;curved=1;rounded=0;orthogonalLoop=1;jettySize=auto;html=1;exitX=0.5;exitY=0;exitDx=0;exitDy=0;entryX=1;entryY=1;entryDx=0;entryDy=0;strokeColor=#E07A5F;align=center;verticalAlign=middle;fontFamily=Helvetica;fontSize=11;fontColor=default;labelBackgroundColor=none;endArrow=none;endFill=0;" edge="1" parent="1" source="BedlxxxgPP-4YYRG52dp-28" target="BedlxxxgPP-4YYRG52dp-2">
          <mxGeometry relative="1" as="geometry" />
        </mxCell>
        <mxCell id="BedlxxxgPP-4YYRG52dp-28" value="Date of employment" style="ellipse;whiteSpace=wrap;html=1;align=center;fontFamily=Helvetica;fontSize=11;fontColor=#393C56;labelBackgroundColor=none;fillColor=#F2CC8F;strokeColor=#E07A5F;" vertex="1" parent="1">
          <mxGeometry x="530" y="492.5" width="130" height="40" as="geometry" />
        </mxCell>
        <mxCell id="BedlxxxgPP-4YYRG52dp-31" value="Specialty" style="ellipse;whiteSpace=wrap;html=1;align=center;fontFamily=Helvetica;fontSize=11;fontColor=#393C56;labelBackgroundColor=none;fillColor=#F2CC8F;strokeColor=#E07A5F;" vertex="1" parent="1">
          <mxGeometry x="440" y="460" width="100" height="40" as="geometry" />
        </mxCell>
        <mxCell id="BedlxxxgPP-4YYRG52dp-38" style="edgeStyle=orthogonalEdgeStyle;shape=connector;curved=1;rounded=0;orthogonalLoop=1;jettySize=auto;html=1;exitX=1;exitY=0.5;exitDx=0;exitDy=0;entryX=0.5;entryY=1;entryDx=0;entryDy=0;strokeColor=#E07A5F;align=center;verticalAlign=middle;fontFamily=Helvetica;fontSize=11;fontColor=default;labelBackgroundColor=none;endArrow=none;endFill=0;" edge="1" parent="1" source="BedlxxxgPP-4YYRG52dp-33" target="BedlxxxgPP-4YYRG52dp-4">
          <mxGeometry relative="1" as="geometry" />
        </mxCell>
        <mxCell id="BedlxxxgPP-4YYRG52dp-33" value="&lt;u&gt;Doctor id&lt;/u&gt;" style="ellipse;whiteSpace=wrap;html=1;align=center;fontFamily=Helvetica;fontSize=11;fontColor=#393C56;labelBackgroundColor=none;fillColor=#F2CC8F;strokeColor=#E07A5F;" vertex="1" parent="1">
          <mxGeometry x="150" y="540" width="100" height="40" as="geometry" />
        </mxCell>
        <mxCell id="BedlxxxgPP-4YYRG52dp-39" style="edgeStyle=orthogonalEdgeStyle;shape=connector;curved=1;rounded=0;orthogonalLoop=1;jettySize=auto;html=1;exitX=1;exitY=0;exitDx=0;exitDy=0;strokeColor=#E07A5F;align=center;verticalAlign=middle;fontFamily=Helvetica;fontSize=11;fontColor=default;labelBackgroundColor=none;endArrow=none;endFill=0;" edge="1" parent="1" source="BedlxxxgPP-4YYRG52dp-34">
          <mxGeometry relative="1" as="geometry">
            <mxPoint x="360" y="530" as="targetPoint" />
          </mxGeometry>
        </mxCell>
        <mxCell id="BedlxxxgPP-4YYRG52dp-34" value="&lt;u&gt;Patient id&lt;/u&gt;" style="ellipse;whiteSpace=wrap;html=1;align=center;fontFamily=Helvetica;fontSize=11;fontColor=#393C56;labelBackgroundColor=none;fillColor=#F2CC8F;strokeColor=#E07A5F;" vertex="1" parent="1">
          <mxGeometry x="200" y="590" width="100" height="40" as="geometry" />
        </mxCell>
        <mxCell id="BedlxxxgPP-4YYRG52dp-40" style="edgeStyle=orthogonalEdgeStyle;shape=connector;curved=1;rounded=0;orthogonalLoop=1;jettySize=auto;html=1;exitX=0.5;exitY=0;exitDx=0;exitDy=0;strokeColor=#E07A5F;align=center;verticalAlign=middle;fontFamily=Helvetica;fontSize=11;fontColor=default;labelBackgroundColor=none;endArrow=none;endFill=0;" edge="1" parent="1" source="BedlxxxgPP-4YYRG52dp-35">
          <mxGeometry relative="1" as="geometry">
            <mxPoint x="360" y="530" as="targetPoint" />
          </mxGeometry>
        </mxCell>
        <mxCell id="BedlxxxgPP-4YYRG52dp-35" value="Date" style="ellipse;whiteSpace=wrap;html=1;align=center;fontFamily=Helvetica;fontSize=11;fontColor=#393C56;labelBackgroundColor=none;fillColor=#F2CC8F;strokeColor=#E07A5F;" vertex="1" parent="1">
          <mxGeometry x="310" y="620" width="100" height="40" as="geometry" />
        </mxCell>
        <mxCell id="BedlxxxgPP-4YYRG52dp-41" style="edgeStyle=orthogonalEdgeStyle;shape=connector;curved=1;rounded=0;orthogonalLoop=1;jettySize=auto;html=1;exitX=0;exitY=0;exitDx=0;exitDy=0;strokeColor=#E07A5F;align=center;verticalAlign=middle;fontFamily=Helvetica;fontSize=11;fontColor=default;labelBackgroundColor=none;endArrow=none;endFill=0;" edge="1" parent="1" source="BedlxxxgPP-4YYRG52dp-36">
          <mxGeometry relative="1" as="geometry">
            <mxPoint x="360" y="530" as="targetPoint" />
          </mxGeometry>
        </mxCell>
        <mxCell id="BedlxxxgPP-4YYRG52dp-36" value="Duration" style="ellipse;whiteSpace=wrap;html=1;align=center;fontFamily=Helvetica;fontSize=11;fontColor=#393C56;labelBackgroundColor=none;fillColor=#F2CC8F;strokeColor=#E07A5F;" vertex="1" parent="1">
          <mxGeometry x="410" y="590" width="100" height="40" as="geometry" />
        </mxCell>
        <mxCell id="BedlxxxgPP-4YYRG52dp-42" style="edgeStyle=orthogonalEdgeStyle;shape=connector;curved=1;rounded=0;orthogonalLoop=1;jettySize=auto;html=1;exitX=0;exitY=0.5;exitDx=0;exitDy=0;strokeColor=#E07A5F;align=center;verticalAlign=middle;fontFamily=Helvetica;fontSize=11;fontColor=default;labelBackgroundColor=none;endArrow=none;endFill=0;" edge="1" parent="1" source="BedlxxxgPP-4YYRG52dp-37">
          <mxGeometry relative="1" as="geometry">
            <mxPoint x="360" y="530" as="targetPoint" />
          </mxGeometry>
        </mxCell>
        <mxCell id="BedlxxxgPP-4YYRG52dp-37" value="Result" style="ellipse;whiteSpace=wrap;html=1;align=center;fontFamily=Helvetica;fontSize=11;fontColor=#393C56;labelBackgroundColor=none;fillColor=#F2CC8F;strokeColor=#E07A5F;" vertex="1" parent="1">
          <mxGeometry x="490" y="540" width="100" height="40" as="geometry" />
        </mxCell>
        <mxCell id="BedlxxxgPP-4YYRG52dp-45" style="edgeStyle=orthogonalEdgeStyle;shape=connector;curved=1;rounded=0;orthogonalLoop=1;jettySize=auto;html=1;exitX=0.5;exitY=0;exitDx=0;exitDy=0;entryX=0;entryY=1;entryDx=0;entryDy=0;strokeColor=#E07A5F;align=center;verticalAlign=middle;fontFamily=Helvetica;fontSize=11;fontColor=default;labelBackgroundColor=none;endArrow=none;endFill=0;" edge="1" parent="1" source="BedlxxxgPP-4YYRG52dp-43" target="BedlxxxgPP-4YYRG52dp-3">
          <mxGeometry relative="1" as="geometry" />
        </mxCell>
        <mxCell id="BedlxxxgPP-4YYRG52dp-43" value="Patient id" style="ellipse;whiteSpace=wrap;html=1;align=center;fontStyle=4;fontFamily=Helvetica;fontSize=11;fontColor=#393C56;labelBackgroundColor=none;fillColor=#F2CC8F;strokeColor=#E07A5F;" vertex="1" parent="1">
          <mxGeometry x="80" y="452.5" width="100" height="40" as="geometry" />
        </mxCell>
        <mxCell id="BedlxxxgPP-4YYRG52dp-46" style="edgeStyle=orthogonalEdgeStyle;shape=connector;curved=1;rounded=0;orthogonalLoop=1;jettySize=auto;html=1;exitX=1;exitY=0.5;exitDx=0;exitDy=0;strokeColor=#E07A5F;align=center;verticalAlign=middle;fontFamily=Helvetica;fontSize=11;fontColor=default;labelBackgroundColor=none;endArrow=none;endFill=0;entryX=0;entryY=1;entryDx=0;entryDy=0;" edge="1" parent="1" source="BedlxxxgPP-4YYRG52dp-44" target="BedlxxxgPP-4YYRG52dp-3">
          <mxGeometry relative="1" as="geometry">
            <mxPoint x="140" y="420" as="targetPoint" />
          </mxGeometry>
        </mxCell>
        <mxCell id="BedlxxxgPP-4YYRG52dp-44" value="Name" style="ellipse;whiteSpace=wrap;html=1;align=center;fontFamily=Helvetica;fontSize=11;fontColor=#393C56;labelBackgroundColor=none;fillColor=#F2CC8F;strokeColor=#E07A5F;" vertex="1" parent="1">
          <mxGeometry x="20" y="380" width="100" height="40" as="geometry" />
        </mxCell>
      </root>
    </mxGraphModel>
  </diagram>
</mxfile>
